{"scene":0,"scenes":[{"nodes":[0]}],"asset":{"version":"2.0","generator":"https://github.com/mikedh/trimesh"},"accessors":[{"componentType":5126,"type":"VEC3","byteOffset":0,"bufferView":0,"count":72232,"max":[10.555659294128418,13.09956169128418,26.929397583007812],"min":[-9.751015663146973,-8.280837059020996,7.972162165970076e-07]},{"componentType":5121,"count":72232,"normalized":true,"type":"VEC4","byteOffset":0,"bufferView":1,"max":[255,255,255,255],"min":[0,0,0,255]}],"meshes":[{"name":"point_cloud.ply","primitives":[{"attributes":{"POSITION":0,"COLOR_0":1},"mode":0,"material":0}]}],"materials":[{"pbrMetallicRoughness":{"baseColorFactor":[1,1,1,1],"metallicFactor":0,"roughnessFactor":0}}],"nodes":[{"name":"world","children":[1]},{"name":"point_cloud.ply","mesh":0}],"buffers":[{"uri":"gltf_buffer_0.bin","byteLength":866784},{"uri":"gltf_buffer_1.bin","byteLength":288928}],"bufferViews":[{"buffer":0,"byteOffset":0,"byteLength":866784},{"buffer":1,"byteOffset":0,"byteLength":288928}]}